<?xml version="1.0" encoding="iso-8859-1"?>
<!-- Generator: Adobe Illustrator 17.1.0, SVG Export Plug-In . SVG Version: 6.00 Build 0)  -->
<!DOCTYPE svg PUBLIC "-//W3C//DTD SVG 1.1//EN" "http://www.w3.org/Graphics/SVG/1.1/DTD/svg11.dtd">
<svg version="1.1" id="Capa_1" xmlns="http://www.w3.org/2000/svg" xmlns:xlink="http://www.w3.org/1999/xlink" x="0px" y="0px"
	 viewBox="0 0 194.961 194.961" style="enable-background:new 0 0 194.961 194.961;" xml:space="preserve">
<path d="M74.003,186.143H17.5c-9.649,0-17.5-7.851-17.5-17.5v-56.504c0-9.649,7.851-17.5,17.5-17.5h56.503
	c9.649,0,17.5,7.851,17.5,17.5v56.504C91.503,178.293,83.653,186.143,74.003,186.143z M17.5,99.639c-6.893,0-12.5,5.607-12.5,12.5
	v56.504c0,6.893,5.607,12.5,12.5,12.5h56.503c6.893,0,12.5-5.607,12.5-12.5v-56.504c0-6.893-5.607-12.5-12.5-12.5H17.5z
	 M69.705,172.535c-4.807,0-8.717-3.91-8.717-8.717s3.91-8.717,8.717-8.717s8.717,3.91,8.717,8.717S74.511,172.535,69.705,172.535z
	 M69.705,160.101c-2.049,0-3.717,1.667-3.717,3.717s1.667,3.717,3.717,3.717s3.717-1.667,3.717-3.717S71.754,160.101,69.705,160.101
	z M23.518,172.535c-4.807,0-8.717-3.91-8.717-8.717s3.91-8.717,8.717-8.717s8.717,3.91,8.717,8.717S28.324,172.535,23.518,172.535z
	 M23.518,160.101c-2.049,0-3.717,1.667-3.717,3.717s1.667,3.717,3.717,3.717s3.717-1.667,3.717-3.717S25.567,160.101,23.518,160.101
	z M45.751,149.108c-4.807,0-8.717-3.91-8.717-8.717s3.91-8.717,8.717-8.717s8.717,3.91,8.717,8.717S50.558,149.108,45.751,149.108z
	 M45.751,136.674c-2.049,0-3.717,1.667-3.717,3.717s1.667,3.717,3.717,3.717s3.717-1.667,3.717-3.717S47.801,136.674,45.751,136.674
	z M69.705,124.898c-4.807,0-8.717-3.91-8.717-8.717s3.91-8.717,8.717-8.717s8.717,3.91,8.717,8.717S74.511,124.898,69.705,124.898z
	 M69.705,112.465c-2.049,0-3.717,1.667-3.717,3.717s1.667,3.717,3.717,3.717s3.717-1.667,3.717-3.717S71.754,112.465,69.705,112.465
	z M23.518,124.898c-4.807,0-8.717-3.91-8.717-8.717s3.91-8.717,8.717-8.717s8.717,3.91,8.717,8.717S28.324,124.898,23.518,124.898z
	 M23.518,112.465c-2.049,0-3.717,1.667-3.717,3.717s1.667,3.717,3.717,3.717s3.717-1.667,3.717-3.717S25.567,112.465,23.518,112.465
	z M137.516,123.725c-4.675,0-9.069-1.82-12.375-5.126L85.188,78.646c-6.823-6.823-6.823-17.926,0-24.749l39.954-39.953
	c3.305-3.306,7.7-5.126,12.375-5.126c4.674,0,9.069,1.82,12.375,5.126l39.953,39.953c6.823,6.823,6.823,17.926,0,24.749
	l-39.954,39.953C146.585,121.905,142.19,123.725,137.516,123.725z M137.516,13.818c-3.339,0-6.478,1.3-8.839,3.661L88.723,57.432
	c-4.874,4.874-4.874,12.805,0,17.679l39.953,39.953c2.361,2.361,5.5,3.661,8.839,3.661s6.478-1.3,8.838-3.661l39.954-39.953
	c4.874-4.874,4.874-12.805,0-17.679l-39.954-39.953C143.994,15.118,140.855,13.818,137.516,13.818z M137.516,74.988
	c-2.329,0-4.518-0.906-6.164-2.553c-3.399-3.398-3.399-8.929,0-12.327c1.646-1.646,3.835-2.554,6.164-2.554
	c2.328,0,4.517,0.907,6.163,2.554c1.646,1.646,2.554,3.835,2.554,6.163c0,2.329-0.907,4.519-2.554,6.164
	C142.033,74.082,139.844,74.988,137.516,74.988z M137.516,62.554c-0.993,0-1.926,0.387-2.628,1.089
	c-1.449,1.449-1.449,3.808,0,5.257c1.403,1.403,3.851,1.404,5.256,0c0.702-0.702,1.089-1.636,1.089-2.629
	c0-0.992-0.387-1.926-1.089-2.628S138.509,62.554,137.516,62.554z M171.019,74.617c-2.329,0-4.518-0.907-6.164-2.554
	c-3.399-3.398-3.399-8.929,0-12.327c1.646-1.646,3.835-2.553,6.164-2.553s4.518,0.906,6.164,2.553c3.399,3.398,3.399,8.929,0,12.327
	C175.536,73.71,173.347,74.617,171.019,74.617z M171.019,62.183c-0.993,0-1.926,0.386-2.628,1.088c-1.449,1.449-1.449,3.808,0,5.257
	c1.404,1.404,3.853,1.404,5.257,0c1.449-1.449,1.449-3.808,0-5.257C172.945,62.569,172.011,62.183,171.019,62.183z M104.675,73.59
	c-2.329,0-4.518-0.906-6.164-2.553c-3.398-3.397-3.398-8.928,0-12.327c1.646-1.646,3.835-2.553,6.164-2.553s4.518,0.906,6.164,2.553
	c3.398,3.399,3.398,8.93,0,12.327C109.193,72.684,107.004,73.59,104.675,73.59z M104.675,61.158c-0.993,0-1.926,0.386-2.628,1.088
	c-1.449,1.449-1.449,3.808,0,5.257c1.404,1.404,3.853,1.404,5.257,0c1.449-1.449,1.449-3.808,0-5.257
	C106.602,61.544,105.668,61.158,104.675,61.158z"/>
<g>
</g>
<g>
</g>
<g>
</g>
<g>
</g>
<g>
</g>
<g>
</g>
<g>
</g>
<g>
</g>
<g>
</g>
<g>
</g>
<g>
</g>
<g>
</g>
<g>
</g>
<g>
</g>
<g>
</g>
</svg>
